<svg width="25" height="26" viewBox="0 0 25 26" fill="none" xmlns="http://www.w3.org/2000/svg">
<path fill-rule="evenodd" clip-rule="evenodd" d="M10.6618 2.0497C10.0201 1.61999 10.4015 1.57851 9.24821 1.57851C6.86484 1.57851 4.61012 3.09561 3.03402 4.67057C2.18298 5.52123 1.64937 6.16141 1.07998 7.31085C0.493844 8.49492 0.143304 9.64587 0.0595703 10.7847V11.8446C0.152819 13.087 0.578338 14.3216 1.378 15.5746C1.77954 16.2037 3.27837 18.0105 3.9471 18.1886C3.90676 18.6728 3.82911 18.452 3.82911 18.8954C3.82911 20.9187 5.3112 22.4552 6.77312 23.4909C8.15624 24.4706 10.0387 25.1168 12.0008 25.2569H13.5868C16.8075 25.0217 19.9395 23.3158 21.1609 19.3822C21.5795 18.0375 21.6176 17.0278 21.6176 15.2435C23.2405 15.1087 25.236 11.171 23.1903 6.9565C20.6874 1.79926 16.0474 -0.799911 10.6618 2.0497Z" fill="#FF8533"/>
<path fill-rule="evenodd" clip-rule="evenodd" d="M16.3463 11.4427L17.7279 11.6372L19.5111 12.2945C20.3693 12.7238 21.1439 13.5158 21.4636 14.3939C26.9668 10.8067 18.1234 -4.76437 8.47268 4.88633C6.87413 6.48488 8.23708 9.17235 9.57644 10.5098C10.1652 9.66448 10.6688 9.20356 11.784 8.89032C13.3559 8.44996 15.5006 8.66691 16.0749 10.4508L16.3463 11.4427Z" fill="url(#paint0_linear_18014_709)"/>
<mask id="mask0_18014_709" style="mask-type:luminance" maskUnits="userSpaceOnUse" x="7" y="1" width="17" height="14">
<path d="M16.3453 11.4427L17.7269 11.6372L19.5101 12.2945C20.3684 12.7238 21.1429 13.5158 21.4626 14.3939C26.9658 10.8067 18.1224 -4.76437 8.4717 4.88633C6.87315 6.48488 8.23611 9.17235 9.57547 10.5098C10.1643 9.66448 10.6678 9.20356 11.783 8.89032C13.3549 8.44996 15.4996 8.66691 16.074 10.4508L16.3453 11.4427Z" fill="white"/>
</mask>
<g mask="url(#mask0_18014_709)">
<path d="M11.1288 9.63979C11.1517 9.67503 11.1673 9.71453 11.1746 9.75593C11.182 9.79733 11.1809 9.83979 11.1715 9.88077C11.1621 9.92175 11.1445 9.96041 11.1198 9.99445C11.0952 10.0285 11.0639 10.0572 11.0279 10.0789C10.9919 10.1006 10.9519 10.1149 10.9102 10.1208C10.8686 10.1267 10.8262 10.1241 10.7856 10.1133C10.7449 10.1025 10.7069 10.0836 10.6737 10.0578C10.6406 10.0319 10.6129 9.99967 10.5925 9.96293C9.97058 8.93529 9.59796 7.91716 9.61585 6.99418V6.99C9.63412 6.13135 9.98047 5.3648 10.7615 4.75697C10.8271 4.70594 10.9103 4.68307 10.9928 4.69339C11.0752 4.7037 11.1502 4.74636 11.2013 4.81197C11.2523 4.87758 11.2752 4.96078 11.2649 5.04326C11.2545 5.12573 11.2119 5.20073 11.1463 5.25176C10.5274 5.73323 10.2537 6.33497 10.2404 7.00484C10.2252 7.80031 10.5643 8.70654 11.1288 9.63979Z" fill="url(#paint1_linear_18014_709)"/>
<path d="M12.8335 9.18306C12.8374 9.22397 12.8331 9.26524 12.821 9.30451C12.8089 9.34378 12.7892 9.38028 12.763 9.41193C12.7368 9.44358 12.7046 9.46976 12.6683 9.48897C12.6319 9.50818 12.5922 9.52005 12.5513 9.5239C12.5104 9.52774 12.4691 9.5235 12.4298 9.5114C12.3906 9.4993 12.3541 9.47958 12.3224 9.45337C12.2908 9.42717 12.2646 9.39498 12.2454 9.35866C12.2262 9.32234 12.2143 9.28259 12.2105 9.24168C12.1724 8.84166 12.3627 7.28839 13.0775 6.05256C13.5163 5.29515 14.1527 4.64431 15.0566 4.40186C15.1362 4.38261 15.2201 4.39524 15.2904 4.43705C15.3607 4.47886 15.4119 4.54653 15.433 4.6256C15.4541 4.70466 15.4434 4.78883 15.4032 4.86012C15.3631 4.9314 15.2966 4.98413 15.218 5.00703C14.5021 5.19733 13.9848 5.73704 13.6195 6.36618C12.9724 7.47908 12.8008 8.83785 12.8335 9.18268" fill="url(#paint2_linear_18014_709)"/>
<path d="M13.8878 9.39125C13.8334 9.4533 13.7567 9.49131 13.6744 9.497C13.5921 9.50269 13.5108 9.47559 13.4484 9.42163C13.386 9.36766 13.3475 9.2912 13.3412 9.20893C13.335 9.12666 13.3615 9.04525 13.4151 8.98248C13.9651 8.34344 15.1712 7.5533 16.5007 7.19629C17.5093 6.92491 18.5986 6.89675 19.5516 7.35614C19.5899 7.37318 19.6243 7.39773 19.653 7.42834C19.6816 7.45894 19.7037 7.49498 19.7181 7.53432C19.7325 7.57365 19.7389 7.61548 19.7369 7.65732C19.7348 7.69917 19.7244 7.74017 19.7062 7.7779C19.688 7.81563 19.6624 7.84932 19.6309 7.87698C19.5994 7.90463 19.5627 7.92568 19.523 7.93888C19.4832 7.95208 19.4412 7.95716 19.3994 7.95382C19.3577 7.95048 19.317 7.93879 19.2799 7.91944C18.4806 7.53427 17.542 7.56472 16.6624 7.80107C15.4547 8.12573 14.3734 8.82871 13.8878 9.39125Z" fill="url(#paint3_linear_18014_709)"/>
<path d="M15.7208 10.8924C15.6812 10.9059 15.6392 10.9114 15.5975 10.9085C15.5557 10.9056 15.5149 10.8943 15.4776 10.8754C15.4402 10.8564 15.4071 10.8302 15.38 10.7982C15.353 10.7662 15.3327 10.7291 15.3202 10.6891C15.3078 10.6491 15.3035 10.6071 15.3076 10.5654C15.3117 10.5237 15.3241 10.4833 15.3441 10.4465C15.3641 10.4097 15.3912 10.3773 15.424 10.3511C15.4567 10.325 15.4944 10.3058 15.5347 10.2944C16.8181 9.89518 17.8153 9.70906 18.7242 9.79774C19.6498 9.88795 20.4628 10.2575 21.3614 10.9685C21.4234 11.0208 21.4625 11.0952 21.4707 11.1759C21.4788 11.2565 21.4553 11.3372 21.405 11.4009C21.3548 11.4645 21.2817 11.5061 21.2014 11.5169C21.121 11.5277 21.0396 11.5068 20.9743 11.4587C20.175 10.8254 19.4622 10.4973 18.6652 10.42C17.8514 10.3409 16.9277 10.5167 15.7208 10.8924Z" fill="url(#paint4_linear_18014_709)"/>
</g>
<path fill-rule="evenodd" clip-rule="evenodd" d="M15.9347 15.0227C14.9744 16.4493 12.8982 16.8413 11.2913 16.8497C9.91272 18.7146 7.24504 20.5107 4.96862 19.0237L4.75586 18.884C4.9043 25.0004 20.9393 28.4837 20.7288 15.5457C20.6942 13.4337 18.2648 12.5347 16.4957 12.3916C16.5718 13.267 16.4516 14.3129 15.9347 15.0227Z" fill="url(#paint5_linear_18014_709)"/>
<mask id="mask1_18014_709" style="mask-type:luminance" maskUnits="userSpaceOnUse" x="4" y="12" width="17" height="13">
<path d="M15.9347 15.0227C14.9744 16.4493 12.8982 16.8413 11.2913 16.8497C9.91272 18.7146 7.24504 20.5107 4.96862 19.0237L4.75586 18.884C4.9043 25.0004 20.9393 28.4837 20.7288 15.5457C20.6942 13.4337 18.2648 12.5347 16.4957 12.3916C16.5718 13.267 16.4516 14.3129 15.9347 15.0227Z" fill="white"/>
</mask>
<g mask="url(#mask1_18014_709)">
<path d="M12.0194 16.2377C12.0416 16.161 12.0924 16.0957 12.1612 16.0552C12.2301 16.0146 12.3118 16.002 12.3897 16.0198C12.4676 16.0376 12.5357 16.0845 12.58 16.151C12.6244 16.2174 12.6417 16.2983 12.6284 16.377C12.3787 17.4713 12.1336 18.403 11.6974 19.2259C11.2529 20.0632 10.6191 20.7769 9.60026 21.4049C9.56527 21.4264 9.52638 21.4409 9.4858 21.4474C9.44522 21.454 9.40375 21.4525 9.36376 21.443C9.32377 21.4335 9.28604 21.4162 9.25273 21.3921C9.21941 21.3681 9.19117 21.3377 9.1696 21.3027C9.14803 21.2677 9.13357 21.2288 9.12703 21.1882C9.12049 21.1476 9.12201 21.1062 9.1315 21.0662C9.14099 21.0262 9.15827 20.9885 9.18234 20.9552C9.20641 20.9218 9.2368 20.8936 9.27179 20.872C10.1853 20.3095 10.7501 19.6762 11.1436 18.9332C11.5459 18.172 11.7789 17.2848 12.019 16.2366" fill="url(#paint6_linear_18014_709)"/>
<path d="M13.524 16.0018C13.5211 15.9607 13.5263 15.9195 13.5394 15.8805C13.5524 15.8415 13.573 15.8054 13.6 15.7744C13.627 15.7433 13.6598 15.7179 13.6966 15.6996C13.7334 15.6812 13.7735 15.6703 13.8145 15.6674C13.8556 15.6645 13.8968 15.6698 13.9358 15.6828C13.9748 15.6959 14.0109 15.7165 14.0419 15.7434C14.073 15.7704 14.0984 15.8033 14.1167 15.8401C14.1351 15.8769 14.146 15.917 14.1489 15.958C14.1679 16.2202 14.2033 16.535 14.2422 16.8798C14.4081 18.3558 14.6342 20.3639 13.9632 21.3672C13.9163 21.4342 13.8451 21.4802 13.7648 21.4953C13.6845 21.5104 13.6014 21.4934 13.5335 21.448C13.4655 21.4026 13.418 21.3324 13.4012 21.2524C13.3845 21.1724 13.3997 21.089 13.4436 21.0201C13.9868 20.2082 13.7755 18.3299 13.6202 16.9476C13.5803 16.5932 13.5441 16.2693 13.524 16.0014" fill="url(#paint7_linear_18014_709)"/>
<path d="M15.148 14.4801C15.1644 14.4412 15.1885 14.4061 15.2188 14.3768C15.2491 14.3475 15.285 14.3246 15.3244 14.3095C15.3638 14.2945 15.4058 14.2875 15.4479 14.2891C15.4901 14.2906 15.5314 14.3007 15.5696 14.3187C15.6077 14.3366 15.6419 14.3621 15.6699 14.3936C15.6979 14.4251 15.7193 14.4619 15.7328 14.5019C15.7462 14.5419 15.7515 14.5841 15.7482 14.6262C15.7449 14.6682 15.7331 14.7091 15.7136 14.7465C15.7029 14.7694 15.8415 15.2839 16.0207 15.9511C16.2982 16.9814 16.6636 18.3398 16.6636 19.3207V19.8421C16.6636 19.9253 16.6305 20.005 16.5717 20.0639C16.5129 20.1227 16.4331 20.1557 16.35 20.1557C16.2668 20.1557 16.187 20.1227 16.1282 20.0639C16.0694 20.005 16.0364 19.9253 16.0364 19.8421V19.3207C16.0364 18.4194 15.6831 17.1074 15.4156 16.1125C15.2028 15.3212 15.0384 14.7115 15.1492 14.4793" fill="url(#paint8_linear_18014_709)"/>
<path d="M15.8065 13.5918C15.7769 13.5629 15.7533 13.5285 15.7371 13.4905C15.7209 13.4525 15.7124 13.4117 15.712 13.3704C15.7117 13.3291 15.7196 13.2881 15.7352 13.2498C15.7508 13.2116 15.7738 13.1768 15.803 13.1475C15.8321 13.1182 15.8668 13.095 15.9049 13.0792C15.9431 13.0634 15.984 13.0553 16.0253 13.0554C16.0667 13.0555 16.1075 13.0638 16.1456 13.0799C16.1837 13.0959 16.2182 13.1193 16.2472 13.1487C16.388 13.2884 16.5273 13.4239 16.6613 13.5545C17.5242 14.3941 18.1876 15.0388 18.6938 16.326C18.7241 16.4034 18.7224 16.4895 18.6891 16.5656C18.6559 16.6417 18.5937 16.7015 18.5164 16.7318C18.4391 16.7621 18.3529 16.7604 18.2768 16.7271C18.2007 16.6939 18.141 16.6317 18.1107 16.5544C17.6539 15.3932 17.0328 14.7891 16.2251 14.0043C16.0916 13.8745 15.953 13.7379 15.8065 13.5933" fill="url(#paint9_linear_18014_709)"/>
</g>
<path fill-rule="evenodd" clip-rule="evenodd" d="M4.6429 17.6539C5.86084 18.4881 6.49494 19.0214 8.08968 18.3359C8.8745 17.9987 9.63 17.3642 10.183 16.7328C7.54085 16.1006 8.04782 13.2521 9.07203 11.3331C7.23217 9.58649 5.73562 6.18195 7.80727 4.22144L9.83515 2.5186C4.50968 1.99945 -3.97749 11.2003 4.6429 17.6539Z" fill="url(#paint10_linear_18014_709)"/>
<mask id="mask2_18014_709" style="mask-type:luminance" maskUnits="userSpaceOnUse" x="0" y="2" width="11" height="17">
<path d="M4.64387 17.6539C5.86182 18.4881 6.49591 19.0214 8.09066 18.3359C8.87547 17.9987 9.63098 17.3642 10.184 16.7328C7.54182 16.1006 8.04879 13.2521 9.07301 11.3331C7.23315 9.58649 5.7366 6.18195 7.80825 4.22144L9.83613 2.5186C4.51066 1.99945 -3.97652 11.2003 4.64387 17.6539Z" fill="white"/>
</mask>
<g mask="url(#mask2_18014_709)">
<path d="M8.98873 15.4299C9.05207 15.3763 9.13411 15.3501 9.2168 15.3569C9.29949 15.3638 9.37606 15.4033 9.42966 15.4666C9.48326 15.53 9.5095 15.612 9.50262 15.6947C9.49573 15.7774 9.45627 15.854 9.39293 15.9076L9.38875 15.9114C9.37124 15.9258 9.30425 15.9825 9.19121 16.0636C8.46273 16.5862 5.84186 18.0854 3.39455 14.6706C3.37058 14.6371 3.35344 14.5993 3.34411 14.5592C3.33477 14.5191 3.33342 14.4776 3.34014 14.4369C3.34685 14.3963 3.3615 14.3574 3.38324 14.3225C3.40499 14.2876 3.4334 14.2572 3.46687 14.2333C3.50033 14.2093 3.53819 14.1922 3.57827 14.1828C3.61836 14.1735 3.65989 14.1721 3.7005 14.1788C3.74111 14.1856 3.78 14.2002 3.81495 14.222C3.8499 14.2437 3.88022 14.2721 3.90418 14.3056C6.00857 17.2454 8.21609 15.9924 8.82507 15.5544C8.91184 15.4923 8.96741 15.4455 8.98188 15.4333L8.98873 15.4299Z" fill="url(#paint11_linear_18014_709)"/>
<path d="M8.7048 13.7019C8.78767 13.7 8.86793 13.731 8.92793 13.7882C8.98792 13.8454 9.02273 13.9241 9.0247 14.007C9.02667 14.0899 8.99563 14.1701 8.93842 14.2301C8.88121 14.2901 8.80252 14.3249 8.71964 14.3269L8.57273 14.3379C7.68857 14.4091 4.63077 14.6546 3.36563 10.9433C3.35094 10.904 3.3443 10.8622 3.34611 10.8203C3.34791 10.7784 3.35813 10.7372 3.37614 10.6994C3.39415 10.6615 3.4196 10.6276 3.45096 10.5998C3.48233 10.5719 3.51897 10.5507 3.55872 10.5373C3.59846 10.5239 3.64049 10.5186 3.68231 10.5218C3.72414 10.5249 3.7649 10.5365 3.80217 10.5557C3.83944 10.575 3.87246 10.6015 3.89927 10.6337C3.92608 10.666 3.94613 10.7033 3.95823 10.7435C5.0658 13.992 7.74795 13.7765 8.52553 13.7122C8.59061 13.7073 8.642 13.7031 8.7067 13.7012" fill="url(#paint12_linear_18014_709)"/>
<path d="M9.2955 12.6633C9.30226 12.7045 9.3007 12.7466 9.29093 12.7872C9.28115 12.8278 9.26334 12.866 9.23856 12.8996C9.21378 12.9332 9.18253 12.9615 9.14664 12.9828C9.11075 13.0042 9.07096 13.0181 9.0296 13.0238C8.98824 13.0295 8.94616 13.0269 8.90583 13.0161C8.8655 13.0053 8.82774 12.9866 8.79477 12.9609C8.76181 12.9353 8.73431 12.9033 8.71389 12.8669C8.69346 12.8305 8.68054 12.7904 8.67587 12.7489C8.65722 12.6168 8.6066 12.8593 8.47148 12.825C7.3426 12.5415 4.60603 11.8533 5.05705 6.70902C5.06676 6.62827 5.10747 6.55446 5.17057 6.50315C5.23367 6.45184 5.31424 6.42705 5.39527 6.43401C5.47631 6.44098 5.55146 6.47915 5.60489 6.54047C5.65831 6.60179 5.68583 6.68147 5.68163 6.76269C5.27742 11.3764 7.64518 11.9721 8.62373 12.2179C9.00624 12.3142 9.25516 12.377 9.2955 12.6633Z" fill="url(#paint13_linear_18014_709)"/>
</g>
<path fill-rule="evenodd" clip-rule="evenodd" d="M10.0695 11.459C8.79937 13.5961 8.71983 16.0522 11.8203 15.8318C15.0821 15.6004 16.1493 14.0312 15.1456 10.9155C14.5785 9.15482 11.6859 9.5773 10.8174 10.4588C10.529 10.7621 10.2773 11.0984 10.0676 11.4605" fill="#FA3D23"/>
<defs>
<linearGradient id="paint0_linear_18014_709" x1="20.3426" y1="3.68221" x2="12.3247" y2="12.8615" gradientUnits="userSpaceOnUse">
<stop offset="1" stop-color="#FFC933"/>
</linearGradient>
<linearGradient id="paint1_linear_18014_709" x1="17.9073" y1="6.072" x2="12.1031" y2="8.4259" gradientUnits="userSpaceOnUse">
<stop offset="1" stop-color="#FA3D23"/>
</linearGradient>
<linearGradient id="paint2_linear_18014_709" x1="17.9073" y1="6.072" x2="12.1031" y2="8.4259" gradientUnits="userSpaceOnUse">
<stop offset="1" stop-color="#FA3D23"/>
</linearGradient>
<linearGradient id="paint3_linear_18014_709" x1="17.9073" y1="6.072" x2="12.1031" y2="8.4259" gradientUnits="userSpaceOnUse">
<stop offset="1" stop-color="#FA3D23"/>
</linearGradient>
<linearGradient id="paint4_linear_18014_709" x1="17.9073" y1="6.072" x2="12.1031" y2="8.4259" gradientUnits="userSpaceOnUse">
<stop offset="1" stop-color="#FA3D23"/>
</linearGradient>
<linearGradient id="paint5_linear_18014_709" x1="12.7434" y1="12.3916" x2="12.7434" y2="24.3604" gradientUnits="userSpaceOnUse">
<stop stop-color="#FFC933"/>
</linearGradient>
<linearGradient id="paint6_linear_18014_709" x1="13.1747" y1="12.7946" x2="16.9491" y2="20.7679" gradientUnits="userSpaceOnUse">
<stop offset="1" stop-color="#FA3D23"/>
</linearGradient>
<linearGradient id="paint7_linear_18014_709" x1="13.1747" y1="12.7946" x2="16.9491" y2="20.7679" gradientUnits="userSpaceOnUse">
<stop offset="1" stop-color="#FA3D23"/>
</linearGradient>
<linearGradient id="paint8_linear_18014_709" x1="13.1747" y1="12.7946" x2="16.9491" y2="20.7679" gradientUnits="userSpaceOnUse">
<stop offset="1" stop-color="#FA3D23"/>
</linearGradient>
<linearGradient id="paint9_linear_18014_709" x1="13.1747" y1="12.7946" x2="16.9491" y2="20.7679" gradientUnits="userSpaceOnUse">
<stop offset="1" stop-color="#FA3D23"/>
</linearGradient>
<linearGradient id="paint10_linear_18014_709" x1="12.1463" y1="13.1742" x2="1.627" y2="7.43436" gradientUnits="userSpaceOnUse">
<stop stop-color="#FFC933"/>
</linearGradient>
<linearGradient id="paint11_linear_18014_709" x1="3.77189" y1="8.01497" x2="10.4971" y2="11.0407" gradientUnits="userSpaceOnUse">
<stop offset="1" stop-color="#FA3D23"/>
</linearGradient>
<linearGradient id="paint12_linear_18014_709" x1="3.77189" y1="8.01497" x2="10.4971" y2="11.0407" gradientUnits="userSpaceOnUse">
<stop offset="1" stop-color="#FA3D23"/>
</linearGradient>
<linearGradient id="paint13_linear_18014_709" x1="3.77189" y1="8.01497" x2="10.4971" y2="11.0407" gradientUnits="userSpaceOnUse">
<stop offset="1" stop-color="#FA3D23"/>
</linearGradient>
</defs>
</svg>
