<svg width="25" height="26" viewBox="0 0 25 26" fill="none" xmlns="http://www.w3.org/2000/svg">
<g clip-path="url(#clip0_18013_667)">
<path fill-rule="evenodd" clip-rule="evenodd" d="M7.47446 4.81155C7.47446 5.87053 7.75017 6.89959 7.7613 7.39172C5.80664 6.35744 3.12708 5.24564 1.49384 7.42968C0.879135 8.25126 0.542915 9.25465 0.5 10.2491V10.6814C0.542606 11.6693 0.879753 12.6181 1.52687 13.3396C2.04618 13.9188 2.98692 14.7651 3.94 14.8444C3.73561 15.1495 3.56457 15.1911 3.29381 15.4406C2.28854 16.3668 1.74238 16.9241 1.74238 18.2847C1.74238 20.9637 5.07217 23.546 8.17407 22.2323C8.77705 21.977 9.10185 21.6611 9.57793 21.3425C9.57793 24.0903 10.6737 25.6427 13.4001 25.6427C14.1458 25.6427 14.8982 25.4028 15.407 25.1654C15.9704 24.9026 16.3916 24.5216 16.8182 24.0916C17.9834 22.9168 17.9865 21.7593 17.9865 20.2919C18.9044 20.5058 21.1088 22.5034 23.3108 19.8828C24.6627 18.2742 24.7776 15.8163 23.5296 14.0785L22.6911 13.1979C22.3855 12.9311 21.9192 12.7397 21.7127 12.4569C22.5507 12.2615 23.89 11.1806 24.2302 10.3884C25.2182 8.08392 23.2348 4.5263 19.6102 4.5263C18.19 4.5263 16.8547 5.46889 15.9791 6.05517C15.9791 3.9335 16.0763 1.7541 14.2548 0.80348C13.739 0.532882 13.1739 0.368973 12.5934 0.321533H11.875C9.54982 0.508631 7.47446 2.48828 7.47446 4.81155Z" fill="#FF8533"/>
<path fill-rule="evenodd" clip-rule="evenodd" d="M15.1276 6.72418C15.4185 4.68123 15.2255 2.34313 14.294 1.70064C11.8643 0.0269512 8.46778 1.82414 8.25659 4.5769C8.19145 5.42992 8.34921 6.69021 8.6913 7.94647C9.49404 8.47412 10.1834 9.06908 10.6132 9.6523L11.7318 11.0453C11.8732 10.9614 12.0292 10.9051 12.1915 10.8792C12.4385 9.38861 13.8176 7.82267 15.1289 6.72418" fill="url(#paint0_linear_18013_667)"/>
<mask id="mask0_18013_667" style="mask-type:luminance" maskUnits="userSpaceOnUse" x="8" y="1" width="8" height="11">
<path d="M15.1276 6.72418C15.4185 4.68123 15.2255 2.34313 14.294 1.70064C11.8643 0.0269512 8.46778 1.82414 8.25659 4.5769C8.19145 5.42992 8.34921 6.69021 8.6913 7.94647C9.49404 8.47412 10.1834 9.06908 10.6132 9.6523L11.7318 11.0453C11.8732 10.9614 12.0292 10.9051 12.1915 10.8792C12.4385 9.38861 13.8176 7.82267 15.1289 6.72418" fill="white"/>
</mask>
<g mask="url(#mask0_18013_667)">
<path d="M12.5912 13.0562C12.1818 12.3501 11.9163 11.2124 11.786 10.0327C11.6433 8.736 11.6625 7.38401 11.8326 6.49605C11.7108 6.40943 11.6061 6.30099 11.5238 6.17622C11.3612 5.91842 11.3423 5.62817 11.6616 5.42629C11.6726 5.41958 11.6843 5.414 11.6965 5.40962C11.7941 5.37522 11.899 5.36704 12.0009 5.38581C12.1416 5.41175 12.3065 5.49418 12.4399 5.70413C12.4802 5.76896 12.5141 5.83751 12.5411 5.90885C12.7141 6.35558 12.6267 6.58034 12.4322 6.65568C12.3396 6.69181 12.2232 6.68286 12.104 6.64211C11.9543 7.50258 11.9425 8.77551 12.0777 10.0006C12.2037 11.1429 12.4572 12.2402 12.8447 12.9086L12.5912 13.0562Z" fill="url(#paint1_radial_18013_667)"/>
</g>
<path fill-rule="evenodd" clip-rule="evenodd" d="M13.8873 11.5425C15.6401 10.5008 18.8605 11.2853 20.801 12.1273C22.1209 11.5585 23.4938 10.6727 23.6544 9.79347C24.1863 6.88079 21.1459 4.53189 18.554 5.46521C16.6848 6.13826 13.3242 8.79714 12.9229 10.929C13.2658 11.0346 13.6385 11.2791 13.887 11.5425" fill="url(#paint2_linear_18013_667)"/>
<mask id="mask1_18013_667" style="mask-type:luminance" maskUnits="userSpaceOnUse" x="12" y="5" width="12" height="8">
<path d="M13.8883 11.5422C15.6411 10.5006 18.8615 11.2851 20.802 12.127C22.1218 11.5583 23.4948 10.6725 23.6554 9.79323C24.1873 6.88054 21.1468 4.53165 18.5549 5.46497C16.6858 6.13802 13.3252 8.7969 12.9238 10.9288C13.2668 11.0344 13.6395 11.2789 13.888 11.5422" fill="white"/>
</mask>
<g mask="url(#mask1_18013_667)">
<path d="M12.5947 12.9033C13.0344 12.2151 13.9223 11.4569 14.9103 10.8002C15.9949 10.0789 17.2061 9.47506 18.0737 9.2185C18.0951 9.07089 18.1437 8.92856 18.2169 8.7986C18.3713 8.53619 18.6183 8.38645 18.9434 8.57508C18.9557 8.5819 18.9671 8.5902 18.9773 8.59977C19.0527 8.67127 19.1082 8.76103 19.1385 8.86036C19.1796 8.99711 19.1817 9.18081 19.0555 9.39662C19.0167 9.46168 18.9717 9.52278 18.9212 9.57908C18.6038 9.93815 18.3654 9.96378 18.2077 9.8261C18.1329 9.76003 18.0875 9.6529 18.0693 9.52817C17.2357 9.78965 16.0999 10.3636 15.0727 11.0462C14.1156 11.6832 13.257 12.4115 12.8414 13.062L12.5947 12.9033Z" fill="url(#paint3_radial_18013_667)"/>
</g>
<path fill-rule="evenodd" clip-rule="evenodd" d="M14.3151 12.142C14.4272 12.3877 14.5393 12.7456 14.6513 13.2154C16.4281 14.1679 17.5065 17.2115 17.8628 19.2754C19.058 20.0667 20.5612 20.7284 21.3781 20.3841C24.0302 19.2665 24.4813 15.5097 22.1873 13.7329C20.6436 12.5372 16.2011 11.0777 14.3145 12.142" fill="url(#paint4_linear_18013_667)"/>
<mask id="mask2_18013_667" style="mask-type:luminance" maskUnits="userSpaceOnUse" x="14" y="11" width="10" height="10">
<path d="M14.3151 12.142C14.4272 12.3877 14.5393 12.7456 14.6513 13.2154C16.4281 14.1679 17.5065 17.2115 17.8628 19.2754C19.058 20.0667 20.5612 20.7284 21.3781 20.3841C24.0302 19.2665 24.4813 15.5097 22.1873 13.7329C20.6436 12.5372 16.2011 11.0777 14.3145 12.142" fill="white"/>
</mask>
<g mask="url(#mask2_18013_667)">
<path d="M12.71 12.8354C13.5247 12.7838 14.6612 13.0537 15.7748 13.4634C16.9984 13.9132 18.2006 14.5338 18.9194 15.0812C19.0519 15.0116 19.1961 14.9671 19.3448 14.95C19.6477 14.9191 19.9154 15.0318 19.9543 15.406C19.9555 15.4196 19.9555 15.4334 19.9543 15.447C19.9407 15.5496 19.9009 15.6469 19.8388 15.7296C19.7527 15.8438 19.6054 15.9543 19.3563 15.9796C19.2812 15.987 19.2056 15.987 19.1306 15.9796C18.6532 15.9352 18.4909 15.757 18.51 15.5495C18.5192 15.4498 18.5788 15.3495 18.6687 15.2612C17.9651 14.7434 16.8311 14.1654 15.6739 13.74C14.5933 13.343 13.4997 13.0808 12.7288 13.1293L12.71 12.8354Z" fill="url(#paint5_radial_18013_667)"/>
</g>
<path fill-rule="evenodd" clip-rule="evenodd" d="M10.2744 20.7292C10.2541 22.3152 10.5504 23.7972 11.2692 24.2798C13.7255 25.9318 17.0955 24.0883 17.2761 21.3381C17.4051 19.3646 16.3366 15.3025 14.5786 14.032C14.4242 14.5201 14.0417 14.8165 13.5934 14.9721C13.5992 16.9351 11.7687 19.3365 10.275 20.7292" fill="url(#paint6_linear_18013_667)"/>
<mask id="mask3_18013_667" style="mask-type:luminance" maskUnits="userSpaceOnUse" x="10" y="14" width="8" height="11">
<path d="M10.2754 20.7295C10.255 22.3155 10.5514 23.7974 11.2702 24.28C13.7265 25.9321 17.0964 24.0886 17.277 21.3383C17.4061 19.3648 16.3375 15.3027 14.5796 14.0322C14.4252 14.5204 14.0427 14.8167 13.5944 14.9723C13.6002 16.9353 11.7697 19.3367 10.276 20.7295" fill="white"/>
</mask>
<g mask="url(#mask3_18013_667)">
<path d="M12.8403 12.8979C13.3099 13.5658 13.6739 14.676 13.9067 15.8396C14.1623 17.1172 14.2614 18.4673 14.1698 19.3667C14.298 19.4426 14.4113 19.5414 14.5038 19.6582C14.6891 19.9011 14.7329 20.1886 14.4325 20.417C14.422 20.4249 14.4108 20.4317 14.3989 20.4371C14.3043 20.4798 14.2002 20.4972 14.0969 20.4875C13.9543 20.4736 13.7832 20.4063 13.6319 20.2096C13.5861 20.1488 13.5463 20.0836 13.5131 20.0151C13.3013 19.585 13.3686 19.3534 13.5557 19.2611C13.6458 19.2173 13.7616 19.2158 13.8839 19.246C13.9577 18.376 13.8583 17.1067 13.6165 15.898C13.3908 14.7699 13.0426 13.6998 12.5977 13.0684L12.8403 12.8979Z" fill="url(#paint7_radial_18013_667)"/>
</g>
<path fill-rule="evenodd" clip-rule="evenodd" d="M4.90151 15.182C3.56681 16.0251 2.48375 17.0764 2.47294 17.9606C2.43682 20.9246 5.83173 22.7267 8.22696 21.3732C9.94635 20.4003 12.7642 17.2734 12.8615 15.1063C12.3407 15.1372 11.9075 15.0137 11.5734 14.7778C9.94232 15.8893 6.89226 15.6689 4.90461 15.182" fill="url(#paint8_linear_18013_667)"/>
<mask id="mask4_18013_667" style="mask-type:luminance" maskUnits="userSpaceOnUse" x="2" y="14" width="11" height="8">
<path d="M4.90151 15.182C3.56681 16.0251 2.48375 17.0764 2.47294 17.9606C2.43682 20.9246 5.83173 22.7267 8.22696 21.3732C9.94635 20.4003 12.7642 17.2734 12.8615 15.1063C12.3407 15.1372 11.9075 15.0137 11.5734 14.7778C9.94232 15.8893 6.89226 15.6689 4.90461 15.182" fill="white"/>
</mask>
<g mask="url(#mask4_18013_667)">
<path d="M12.8557 13.0379C12.5469 13.794 11.8112 14.7004 10.9584 15.5257C10.0217 16.4325 8.9399 17.2463 8.13375 17.656C8.13949 17.8049 8.11758 17.9535 8.06924 18.0944C7.96521 18.3813 7.74785 18.5736 7.39371 18.4458C7.38134 18.4412 7.36944 18.4354 7.35819 18.4285C7.27064 18.3722 7.1995 18.2938 7.15196 18.2013C7.08652 18.0728 7.05069 17.8925 7.13653 17.657C7.16274 17.5865 7.19562 17.5187 7.2347 17.4544C7.48172 17.0438 7.71327 16.9749 7.89232 17.0839C7.97754 17.1358 8.04175 17.233 8.08222 17.3525C8.85406 16.9438 9.86765 16.1737 10.7531 15.3167C11.5799 14.5167 12.2913 13.6452 12.5824 12.9292L12.8557 13.0379Z" fill="url(#paint9_radial_18013_667)"/>
</g>
<path fill-rule="evenodd" clip-rule="evenodd" d="M11.205 11.5649L10.0182 10.0876C8.75235 8.36885 4.38551 6.21692 2.94213 7.13663C0.45274 8.72296 0.782784 12.5495 3.23883 13.8188C5.00637 14.7323 9.24045 15.3872 11.0747 14.23C10.6168 13.4479 10.6977 12.3087 11.205 11.5649Z" fill="url(#paint10_linear_18013_667)"/>
<mask id="mask5_18013_667" style="mask-type:luminance" maskUnits="userSpaceOnUse" x="1" y="6" width="11" height="9">
<path d="M11.2059 11.5649L10.0192 10.0876C8.75332 8.36885 4.38649 6.21692 2.9431 7.13663C0.453716 8.72296 0.783761 12.5495 3.2398 13.8188C5.00735 14.7323 9.24143 15.3872 11.0757 14.23C10.6178 13.4479 10.6987 12.3087 11.2059 11.5649Z" fill="white"/>
</mask>
<g mask="url(#mask5_18013_667)">
<path d="M12.7358 13.1293C11.9247 13.2219 10.7765 13.0083 9.64371 12.6545C8.39916 12.2658 7.16698 11.7057 6.42201 11.1938C6.29406 11.2704 6.15305 11.3228 6.0061 11.3482C5.70418 11.3939 5.4306 11.2945 5.3738 10.9209C5.37279 10.908 5.37279 10.8949 5.3738 10.882C5.38195 10.7786 5.41684 10.6791 5.47508 10.5933C5.55595 10.4741 5.69829 10.3559 5.94562 10.3189C6.01971 10.3082 6.09466 10.3048 6.16945 10.3087C6.64859 10.329 6.81966 10.4991 6.8107 10.7072C6.80636 10.8073 6.75173 10.9101 6.6662 11.003C7.39453 11.485 8.55603 12.0064 9.73261 12.3738C10.8308 12.7165 11.9367 12.924 12.7049 12.837L12.7358 13.1293Z" fill="url(#paint11_radial_18013_667)"/>
</g>
<path fill-rule="evenodd" clip-rule="evenodd" d="M13.4151 14.4158C14.5197 14.1127 14.0943 12.3908 13.2267 11.7421C11.1742 10.2083 10.2471 15.2853 13.4151 14.4158Z" fill="url(#paint12_linear_18013_667)"/>
</g>
<defs>
<linearGradient id="paint0_linear_18013_667" x1="12.4804" y1="11.0614" x2="11.7437" y2="0.554125" gradientUnits="userSpaceOnUse">
<stop offset="1" stop-color="#FFC933"/>
</linearGradient>
<radialGradient id="paint1_radial_18013_667" cx="0" cy="0" r="1" gradientUnits="userSpaceOnUse" gradientTransform="translate(12.4218 11.1778) rotate(-95.5214) scale(5.84293 7.81322)">
<stop offset="1" stop-color="#FA3D23"/>
</radialGradient>
<linearGradient id="paint2_linear_18013_667" x1="13.3333" y1="12.8644" x2="24.7129" y2="6.23434" gradientUnits="userSpaceOnUse">
<stop offset="1" stop-color="#FFC933"/>
</linearGradient>
<radialGradient id="paint3_radial_18013_667" cx="0" cy="0" r="1" gradientUnits="userSpaceOnUse" gradientTransform="translate(14.4187 11.7205) rotate(-31.5813) scale(5.55257 15.0535)">
<stop offset="1" stop-color="#FA3D23"/>
</radialGradient>
<linearGradient id="paint4_linear_18013_667" x1="13.0232" y1="12.6123" x2="20.2302" y2="21.0761" gradientUnits="userSpaceOnUse">
<stop offset="1" stop-color="#FFC933"/>
</linearGradient>
<radialGradient id="paint5_radial_18013_667" cx="0" cy="0" r="1" gradientUnits="userSpaceOnUse" gradientTransform="translate(14.9231 13.4846) rotate(28.4713) scale(5.73387 13.1629)">
<stop offset="1" stop-color="#FA3D23"/>
</radialGradient>
<linearGradient id="paint6_linear_18013_667" x1="12.7905" y1="12.9224" x2="15.2331" y2="26.0468" gradientUnits="userSpaceOnUse">
<stop offset="1" stop-color="#FFC933"/>
</linearGradient>
<radialGradient id="paint7_radial_18013_667" cx="0" cy="0" r="1" gradientUnits="userSpaceOnUse" gradientTransform="translate(13.4117 14.4929) rotate(79.2825) scale(6.67382 20.1477)">
<stop offset="1" stop-color="#FA3D23"/>
</radialGradient>
<linearGradient id="paint8_linear_18013_667" x1="12.8684" y1="12.8838" x2="-3.48415" y2="24.1215" gradientUnits="userSpaceOnUse">
<stop offset="1" stop-color="#FFC933"/>
</linearGradient>
<radialGradient id="paint9_radial_18013_667" cx="0" cy="0" r="1" gradientUnits="userSpaceOnUse" gradientTransform="translate(11.3754 14.8416) rotate(139.282) scale(5.14116 10.9357)">
<stop offset="1" stop-color="#FA3D23"/>
</radialGradient>
<linearGradient id="paint10_linear_18013_667" x1="12.7323" y1="13.2714" x2="-0.799188" y2="6.91276" gradientUnits="userSpaceOnUse">
<stop offset="1" stop-color="#FFC933"/>
</linearGradient>
<radialGradient id="paint11_radial_18013_667" cx="0" cy="0" r="1" gradientUnits="userSpaceOnUse" gradientTransform="translate(10.8528 12.748) rotate(-154.063) scale(5.54028 11.8532)">
<stop offset="1" stop-color="#FA3D23"/>
</radialGradient>
<linearGradient id="paint12_linear_18013_667" x1="12.7157" y1="11.4514" x2="12.7157" y2="14.5168" gradientUnits="userSpaceOnUse">
<stop offset="1" stop-color="#FA3D23"/>
</linearGradient>
<clipPath id="clip0_18013_667">
<rect width="24" height="25.357" fill="white" transform="translate(0.5 0.321533)"/>
</clipPath>
</defs>
</svg>
