<svg width="25" height="29" viewBox="0 0 25 29" fill="none" xmlns="http://www.w3.org/2000/svg">
<path d="M17.4026 13.4526C15.8699 11.5171 14.1459 9.74132 12.257 8.15241C11.0401 7.17222 9.89959 6.1006 8.8453 4.94691C8.32684 4.34149 7.88639 3.67334 7.53437 2.95822C7.36949 2.6145 6.80766 1.65665 6.92822 1.25696C5.43825 6.15159 4.45423 11.9523 7.42572 16.5552C10.3972 21.1582 16.111 22.8398 20.5392 25.6373C20.5735 25.6523 20.6107 25.6594 20.6481 25.6582C20.6855 25.657 20.7221 25.6474 20.7552 25.6302C20.7884 25.6129 20.8172 25.5885 20.8397 25.5586C20.8621 25.5287 20.8776 25.4941 20.8849 25.4574C21.6131 21.143 20.0121 16.8651 17.4026 13.4526Z" fill="#64B900"/>
<path d="M13.9951 11.2252C13.9566 11.1686 13.8496 11.2137 13.8916 11.2956C14.7639 13.0645 15.6489 14.8317 16.427 16.6441C17.0024 17.9863 17.4208 19.4216 18.0138 20.7796C17.4054 20.0468 16.7563 19.3554 16.0884 18.6769C15.7604 18.3707 15.4581 18.038 15.1849 17.682C14.9406 17.2998 14.721 16.9024 14.5273 16.4923C14.2301 15.8932 13.947 15.2845 13.6451 14.6886C12.4725 12.3365 11.2135 10.0294 9.94974 7.72545C9.91762 7.67822 9.82797 7.71846 9.8603 7.78626C11.3222 10.8878 12.8193 14.0208 14.4761 17.0244C14.0174 16.542 13.5727 16.0501 13.1596 15.5437C10.6971 12.4493 8.79586 8.94729 7.54257 5.19754C7.51046 5.15031 7.44433 5.17455 7.47196 5.24555C8.41431 8.77615 10.0492 12.0856 12.2812 14.9806C13.4723 16.5604 14.8543 17.9551 16.1657 19.3979C11.9296 17.1019 8.69322 13.3127 7.08619 8.76777C7.08023 8.759 7.07104 8.75296 7.06064 8.75096C7.05025 8.74896 7.0395 8.75117 7.03076 8.75711C7.02203 8.76305 7.01601 8.77224 7.01405 8.78264C7.01209 8.79304 7.01433 8.80381 7.02029 8.81258C7.7697 11.2391 9.01169 13.4859 10.6682 15.4117C12.3248 17.3376 14.3601 18.9009 16.6463 20.0035C16.6667 20.0147 16.6896 20.0205 16.7129 20.0204C17.2802 20.6541 17.8153 21.3161 18.3161 22.0037C14.7693 20.5941 11.5435 18.4779 8.83505 15.7837C8.81578 15.7553 8.78798 15.8157 8.79269 15.8125C11.4808 18.778 14.8513 21.0414 18.6096 22.405C19.0205 23.0034 19.3889 23.6299 19.7123 24.2797C19.8076 24.4705 20.1195 24.3826 20.0367 24.1696C19.6594 23.204 19.1502 22.2951 18.5237 21.4688C18.1872 19.7085 17.3084 17.9302 16.5814 16.3043C15.832 14.5563 14.968 12.8596 13.9951 11.2252Z" fill="#3D8709"/>
</svg>
